# xmcd
#
# Track frame offsets:
#	151
#	13850
#	21710
#	28243
#	42980
#	53115
#	57457
#	64954
#	72419
#	78790
#	88717
#	97934
#	105438
#	117706
#	124874
#	130166
#	137678
#	144653
#	154220
#	158000
#	163267
#
# Disc length: 2302 seconds
#
# Revision: 1
# Processed by: cddbd v1.5.1PL0 Copyright (c) Steve Scherf et al.
# Submitted via: audiograbber 1.81.03
#
DISCID=3208fc15
DTITLE=Uncle Dave Macon - Uncle Dave At Home
DYEAR=1950
DGENRE=Country
TTITLE0=Cumberland Mountain Deer Race
TTITLE1=Rabbit In The Pea Patch
TTITLE2=Bully Of The Town
TTITLE3=Mountain Dew
TTITLE4=Old Maid's Love Song
TTITLE5=Rock Of Ages (fragment)
TTITLE6=Keep My Skillet Good And Greasy
TTITLE7=Death Of John Henry
TTITLE8=That's Where My Money Goes
TTITLE9=Long John Green
TTITLE10=Lady In The Car
TTITLE11=Cotton Eyed Joe
TTITLE12=Something's Sure To Tickle Me
TTITLE13=Chewing Gum
TTITLE14=All In Down And Out Blues
TTITLE15=Hungry Hash House
TTITLE16=Whoa Mule
TTITLE17=No One To Welcome Me Home
TTITLE18=Banjo Solo
TTITLE19=Jenny Put The Kettle On
TTITLE20=Kissing On The Sly
EXTD=Recorded on 5 inch reel tape at 3 3/4 ips circa May 1950.  From CD - Sprin
EXTD=g Fed Records SFR-CD-101.
EXTT0=
EXTT1=
EXTT2=
EXTT3=
EXTT4=
EXTT5=
EXTT6=
EXTT7=
EXTT8=
EXTT9=
EXTT10=
EXTT11=
EXTT12=
EXTT13=
EXTT14=
EXTT15=
EXTT16=
EXTT17=
EXTT18=
EXTT19=
EXTT20=
PLAYORDER=
